# xmcd CD database file
#
# Track frame offsets:
#	150
#	25844
#	93497
#	121049
#	142964
#	166566
#	191426
#	223824
#	279224
#	303814
#	324597
#
# Disc length: 4719 seconds
#
# Revision: 0
# Processed by: cddbd v1.5.2PL0 Copyright (c) Steve Scherf et al.
# Submitted via: CDex 1.79
#
DISCID=87126d0b
DTITLE=Hank Jones - The Trio with Guests and The Flute of Bobby Jaspar
DYEAR=1900
DGENRE=Jazz
TTITLE0=Little Girl Blue
TTITLE1=Bluebird
TTITLE2=How High The Moon
TTITLE3=Hank's Pranks
TTITLE4=Alpha
TTITLE5=Wine And Brandy
TTITLE6=Moonlight Becomes You
TTITLE7=Relaxin' At Camarillo's
TTITLE8=Minor Conception
TTITLE9=Sunday In Savannah
TTITLE10=Spontaneous Combustion
EXTD=
EXTT0=
EXTT1=
EXTT2=
EXTT3=
EXTT4=
EXTT5=
EXTT6=
EXTT7=
EXTT8=
EXTT9=
EXTT10=
PLAYORDER=
